<svg width="389" height="220" viewBox="0 0 389 220" fill="none" xmlns="http://www.w3.org/2000/svg">
<g opacity="0.5">
<path fill-rule="evenodd" clip-rule="evenodd" d="M0.440918 39.766H389V39.3287H0.440918V39.766Z" fill="url(#paint0_linear_2826_32919)" fill-opacity="0.5"/>
<path fill-rule="evenodd" clip-rule="evenodd" d="M177.685 219.928V0.768555L177.248 0.768555V219.928H177.685Z" fill="url(#paint1_linear_2826_32919)" fill-opacity="0.5"/>
<path fill-rule="evenodd" clip-rule="evenodd" d="M0.440918 84.8059H389V84.3687H0.440918V84.8059Z" fill="url(#paint2_linear_2826_32919)" fill-opacity="0.5"/>
<path fill-rule="evenodd" clip-rule="evenodd" d="M221.996 219.928V0.768555L221.559 0.768555V219.928H221.996Z" fill="url(#paint3_linear_2826_32919)" fill-opacity="0.5"/>
<path fill-rule="evenodd" clip-rule="evenodd" d="M0.441193 219.928V0.768555L0.00390625 0.768555V219.928H0.441193Z" fill="url(#paint4_linear_2826_32919)" fill-opacity="0.5"/>
<path fill-rule="evenodd" clip-rule="evenodd" d="M0.440918 129.847H389V129.41H0.440918V129.847Z" fill="url(#paint5_linear_2826_32919)" fill-opacity="0.5"/>
<path fill-rule="evenodd" clip-rule="evenodd" d="M266.307 219.928L266.307 0.768555L265.87 0.768555L265.87 219.928H266.307Z" fill="url(#paint6_linear_2826_32919)" fill-opacity="0.5"/>
<path fill-rule="evenodd" clip-rule="evenodd" d="M44.7525 219.928V0.768555L44.3152 0.768555V219.928H44.7525Z" fill="url(#paint7_linear_2826_32919)" fill-opacity="0.5"/>
<path fill-rule="evenodd" clip-rule="evenodd" d="M0.440918 174.887H389V174.45H0.440918V174.887Z" fill="url(#paint8_linear_2826_32919)" fill-opacity="0.5"/>
<path fill-rule="evenodd" clip-rule="evenodd" d="M310.618 219.928L310.618 0.768555L310.181 0.768555L310.181 219.928H310.618Z" fill="url(#paint9_linear_2826_32919)" fill-opacity="0.5"/>
<path fill-rule="evenodd" clip-rule="evenodd" d="M89.0631 219.928V0.768555L88.6259 0.768555V219.928H89.0631Z" fill="url(#paint10_linear_2826_32919)" fill-opacity="0.5"/>
<path fill-rule="evenodd" clip-rule="evenodd" d="M354.929 219.928L354.929 0.768555L354.492 0.768555L354.492 219.928H354.929Z" fill="url(#paint11_linear_2826_32919)" fill-opacity="0.5"/>
<path fill-rule="evenodd" clip-rule="evenodd" d="M133.374 219.928V0.768555L132.937 0.768555V219.928H133.374Z" fill="url(#paint12_linear_2826_32919)" fill-opacity="0.5"/>
<rect width="43.8732" height="44.6033" transform="matrix(-1 0 0 1 310.181 39.7661)" fill="#CBCBCB" fill-opacity="0.12"/>
<rect width="43.8753" height="44.6035" transform="matrix(-1 0 0 1 265.87 84.8062)" fill="#CBCBCB" fill-opacity="0.08"/>
</g>
<defs>
<linearGradient id="paint0_linear_2826_32919" x1="240.206" y1="0.768559" x2="168.457" y2="204.66" gradientUnits="userSpaceOnUse">
<stop stop-color="#CBCBCB"/>
<stop offset="1" stop-color="#CBCBCB" stop-opacity="0"/>
</linearGradient>
<linearGradient id="paint1_linear_2826_32919" x1="240.206" y1="0.768559" x2="168.457" y2="204.66" gradientUnits="userSpaceOnUse">
<stop stop-color="#CBCBCB"/>
<stop offset="1" stop-color="#CBCBCB" stop-opacity="0"/>
</linearGradient>
<linearGradient id="paint2_linear_2826_32919" x1="240.206" y1="0.768559" x2="168.457" y2="204.66" gradientUnits="userSpaceOnUse">
<stop stop-color="#CBCBCB"/>
<stop offset="1" stop-color="#CBCBCB" stop-opacity="0"/>
</linearGradient>
<linearGradient id="paint3_linear_2826_32919" x1="240.206" y1="0.768559" x2="168.457" y2="204.66" gradientUnits="userSpaceOnUse">
<stop stop-color="#CBCBCB"/>
<stop offset="1" stop-color="#CBCBCB" stop-opacity="0"/>
</linearGradient>
<linearGradient id="paint4_linear_2826_32919" x1="240.206" y1="0.768559" x2="168.457" y2="204.66" gradientUnits="userSpaceOnUse">
<stop stop-color="#CBCBCB"/>
<stop offset="1" stop-color="#CBCBCB" stop-opacity="0"/>
</linearGradient>
<linearGradient id="paint5_linear_2826_32919" x1="240.206" y1="0.768559" x2="168.457" y2="204.66" gradientUnits="userSpaceOnUse">
<stop stop-color="#CBCBCB"/>
<stop offset="1" stop-color="#CBCBCB" stop-opacity="0"/>
</linearGradient>
<linearGradient id="paint6_linear_2826_32919" x1="240.206" y1="0.768559" x2="168.457" y2="204.66" gradientUnits="userSpaceOnUse">
<stop stop-color="#CBCBCB"/>
<stop offset="1" stop-color="#CBCBCB" stop-opacity="0"/>
</linearGradient>
<linearGradient id="paint7_linear_2826_32919" x1="240.206" y1="0.768559" x2="168.457" y2="204.66" gradientUnits="userSpaceOnUse">
<stop stop-color="#CBCBCB"/>
<stop offset="1" stop-color="#CBCBCB" stop-opacity="0"/>
</linearGradient>
<linearGradient id="paint8_linear_2826_32919" x1="240.206" y1="0.768559" x2="168.457" y2="204.66" gradientUnits="userSpaceOnUse">
<stop stop-color="#CBCBCB"/>
<stop offset="1" stop-color="#CBCBCB" stop-opacity="0"/>
</linearGradient>
<linearGradient id="paint9_linear_2826_32919" x1="240.206" y1="0.768559" x2="168.457" y2="204.66" gradientUnits="userSpaceOnUse">
<stop stop-color="#CBCBCB"/>
<stop offset="1" stop-color="#CBCBCB" stop-opacity="0"/>
</linearGradient>
<linearGradient id="paint10_linear_2826_32919" x1="240.206" y1="0.768559" x2="168.457" y2="204.66" gradientUnits="userSpaceOnUse">
<stop stop-color="#CBCBCB"/>
<stop offset="1" stop-color="#CBCBCB" stop-opacity="0"/>
</linearGradient>
<linearGradient id="paint11_linear_2826_32919" x1="240.206" y1="0.768559" x2="168.457" y2="204.66" gradientUnits="userSpaceOnUse">
<stop stop-color="#CBCBCB"/>
<stop offset="1" stop-color="#CBCBCB" stop-opacity="0"/>
</linearGradient>
<linearGradient id="paint12_linear_2826_32919" x1="240.206" y1="0.768559" x2="168.457" y2="204.66" gradientUnits="userSpaceOnUse">
<stop stop-color="#CBCBCB"/>
<stop offset="1" stop-color="#CBCBCB" stop-opacity="0"/>
</linearGradient>
</defs>
</svg>
